<?xml version="1.0" encoding="UTF-8"?>
<!DOCTYPE svg PUBLIC "-//W3C//DTD SVG 1.1//EN" "http://www.w3.org/Graphics/SVG/1.1/DTD/svg11.dtd">
<svg xmlns="http://www.w3.org/2000/svg" version="1.1" width="20" height="20" viewBox="0 0 512.000000 512.000000" style="shape-rendering:geometricPrecision; text-rendering:geometricPrecision; image-rendering:optimizeQuality; fill-rule:evenodd; clip-rule:evenodd" xmlns:xlink="http://www.w3.org/1999/xlink">
<g><path style="opacity:0.982" fill="#000000" d="M 123.5,38.5 C 130.688,37.4295 137.021,39.2628 142.5,44C 229.944,105.111 317.111,166.611 404,228.5C 411.686,238.582 414.353,249.915 412,262.5C 410.47,267.892 408.137,272.892 405,277.5C 363.333,336.833 321.667,396.167 280,455.5C 260.563,474.454 238.729,477.621 214.5,465C 157.833,425.333 101.167,385.667 44.5,346C 25.0018,327.517 20.8351,306.017 32,281.5C 74.464,220.071 117.297,158.904 160.5,98C 148.444,88.9443 136.11,80.2776 123.5,72C 110.946,63.8981 108.946,53.8981 117.5,42C 119.432,40.5415 121.432,39.3748 123.5,38.5 Z M 187.5,116.5 C 245.804,157.324 304.138,198.157 362.5,239C 263.47,256.671 164.47,274.004 65.5,291C 106.546,233.067 147.212,174.9 187.5,116.5 Z"/></g>
<g><path style="opacity:0.981" fill="#000000" d="M 420.5,305.5 C 426.675,304.643 432.342,305.81 437.5,309C 454.276,328.701 468.443,350.201 480,373.5C 489.694,398.556 485.194,420.723 466.5,440C 441.546,459.441 415.879,460.441 389.5,443C 368.117,424.176 362.283,401.343 372,374.5C 382.265,352.917 394.932,332.917 410,314.5C 413.103,310.886 416.603,307.886 420.5,305.5 Z"/></g>
</svg>
