<?xml version="1.0" encoding="UTF-8"?>
<!DOCTYPE svg PUBLIC "-//W3C//DTD SVG 1.1//EN" "http://www.w3.org/Graphics/SVG/1.1/DTD/svg11.dtd">
<svg xmlns="http://www.w3.org/2000/svg" version="1.1" width="512px" height="512px" style="shape-rendering:geometricPrecision; text-rendering:geometricPrecision; image-rendering:optimizeQuality; fill-rule:evenodd; clip-rule:evenodd" xmlns:xlink="http://www.w3.org/1999/xlink">
<g><path style="opacity:0.986" fill="#000000" d="M 36.5,7.5 C 154.167,7.33333 271.834,7.5 389.5,8C 403.822,10.99 412.988,19.49 417,33.5C 418.582,51.4613 418.916,69.4613 418,87.5C 415.082,107.085 403.748,117.751 384,119.5C 366.867,118.362 355.534,109.695 350,93.5C 348.869,87.888 348.369,82.2213 348.5,76.5C 317.165,76.3334 285.832,76.5 254.5,77C 251.427,77.7386 249.26,79.5719 248,82.5C 247.333,197.833 247.333,313.167 248,428.5C 249.26,431.428 251.427,433.261 254.5,434C 265.833,434.333 277.167,434.667 288.5,435C 308.463,441.069 317.297,454.569 315,475.5C 311.705,488.796 303.538,497.63 290.5,502C 264.714,503.149 238.881,503.649 213,503.5C 186.794,503.644 160.628,503.144 134.5,502C 118.934,496.554 110.6,485.554 109.5,469C 111.05,451.224 120.383,439.89 137.5,435C 148.833,434.667 160.167,434.333 171.5,434C 175,433.167 177.167,431 178,427.5C 178.667,312.833 178.667,198.167 178,83.5C 177.167,80 175,77.8333 171.5,77C 139.835,76.5 108.168,76.3334 76.5,76.5C 77.7393,107.431 63.0727,121.265 32.5,118C 18.6218,113.411 10.4552,103.911 8,89.5C 7.06375,70.123 7.39709,50.7897 9,31.5C 14.0563,18.5996 23.223,10.5996 36.5,7.5 Z"/></g>
<g><path style="opacity:0.973" fill="#000000" d="M 309.5,272.5 C 370.168,272.333 430.834,272.5 491.5,273C 497.74,274.908 501.573,279.075 503,285.5C 503.667,296.833 503.667,308.167 503,319.5C 498.257,331.284 489.757,335.117 477.5,331C 469.39,325.258 466.39,317.425 468.5,307.5C 451.833,307.5 435.167,307.5 418.5,307.5C 418.5,361.167 418.5,414.833 418.5,468.5C 425.508,468.334 432.508,468.5 439.5,469C 449.388,472.319 453.555,479.152 452,489.5C 450.167,496.667 445.667,501.167 438.5,503C 413.167,503.667 387.833,503.667 362.5,503C 351.1,499.035 346.934,491.201 350,479.5C 352.256,474.243 356.09,470.743 361.5,469C 368.826,468.5 376.159,468.334 383.5,468.5C 383.5,414.833 383.5,361.167 383.5,307.5C 366.5,307.5 349.5,307.5 332.5,307.5C 334.839,325.324 327.172,333.49 309.5,332C 302.979,329.794 299.146,325.294 298,318.5C 297.333,307.5 297.333,296.5 298,285.5C 299.617,279.058 303.45,274.725 309.5,272.5 Z"/></g>
</svg>
