<?xml version="1.0" encoding="UTF-8"?>
<!DOCTYPE svg PUBLIC "-//W3C//DTD SVG 1.1//EN" "http://www.w3.org/Graphics/SVG/1.1/DTD/svg11.dtd">
<svg xmlns="http://www.w3.org/2000/svg" version="1.1" width="20" height="20" viewBox="0 0 512.000000 512.000000" style="shape-rendering:geometricPrecision; text-rendering:geometricPrecision; image-rendering:optimizeQuality; fill-rule:evenodd; clip-rule:evenodd" xmlns:xlink="http://www.w3.org/1999/xlink">
<g><path style="opacity:0.986" fill="#000000" d="M 269.5,-0.5 C 310.833,-0.5 352.167,-0.5 393.5,-0.5C 432.294,117.883 471.294,236.217 510.5,354.5C 478.507,355.5 446.507,355.833 414.5,355.5C 408.815,332.76 402.815,310.093 396.5,287.5C 362.507,286.5 328.507,286.167 294.5,286.5C 294.667,267.497 294.5,248.497 294,229.5C 291.385,207.763 279.551,193.93 258.5,188C 241.538,186.756 224.538,186.089 207.5,186C 228.269,123.859 248.936,61.6918 269.5,-0.5 Z M 326.5,82.5 C 330.767,82.203 334.934,82.5363 339,83.5C 352.677,123.696 365.843,164.03 378.5,204.5C 347.833,204.5 317.167,204.5 286.5,204.5C 299.628,163.783 312.961,123.116 326.5,82.5 Z"/></g>
<g><path style="opacity:0.984" fill="#000000" d="M 263.5,511.5 C 251.5,511.5 239.5,511.5 227.5,511.5C 214.803,510.329 201.969,508.995 189,507.5C 159.667,508.833 130.333,508.833 101,507.5C 88.0243,508.925 75.191,510.259 62.5,511.5C 50.5,511.5 38.5,511.5 26.5,511.5C 5.26041,505.702 -2.57293,492.035 3,470.5C 6.01241,465.8 9.01241,461.134 12,456.5C 14.4453,443.272 16.1119,429.938 17,416.5C 18.1479,393.507 19.1479,370.507 20,347.5C 20.9343,344.864 21.7676,342.197 22.5,339.5C 21.5652,336.529 20.7319,333.529 20,330.5C 19.0392,300.127 19.3726,269.793 21,239.5C 26.8115,222.51 38.6448,213.01 56.5,211C 69.8292,210.5 83.1625,210.333 96.5,210.5C 97.9454,195.813 97.7788,181.146 96,166.5C 92.6215,153.412 88.9548,140.412 85,127.5C 83.1843,94.014 98.0176,71.8473 129.5,61C 155.012,55.6147 176.179,62.7814 193,82.5C 204.846,99.2381 208.179,117.571 203,137.5C 195.262,153.424 191.762,170.257 192.5,188C 192.723,195.51 193.056,203.01 193.5,210.5C 206.837,210.333 220.171,210.5 233.5,211C 251.916,212.953 263.749,222.786 269,240.5C 270.626,269.793 270.959,299.126 270,328.5C 269.595,332.266 268.761,335.933 267.5,339.5C 268.435,342.471 269.268,345.471 270,348.5C 270.624,371.85 271.624,395.183 273,418.5C 273.943,431.596 275.61,444.596 278,457.5C 280.251,461.425 282.917,465.092 286,468.5C 293.262,490.645 285.762,504.978 263.5,511.5 Z M 47.5,354.5 C 112.5,354.5 177.5,354.5 242.5,354.5C 242.239,386.955 244.073,419.288 248,451.5C 248.899,460.098 250.899,468.431 254,476.5C 255.5,479.333 257.667,481.5 260.5,483C 256.587,484.052 252.587,484.552 248.5,484.5C 232.435,483.829 216.435,482.495 200.5,480.5C 195.395,459.141 190.229,437.808 185,416.5C 181.879,437.758 179.379,459.092 177.5,480.5C 153.5,480.5 129.5,480.5 105.5,480.5C 101.018,467.554 95.8514,454.887 90,442.5C 89.5001,455.496 89.3334,468.496 89.5,481.5C 73.5045,482.5 57.5045,483.5 41.5,484.5C 37.4128,484.552 33.4128,484.052 29.5,483C 33.3022,480.913 35.8022,477.746 37,473.5C 42.2919,451.833 45.2919,429.833 46,407.5C 47.0264,389.847 47.5264,372.181 47.5,354.5 Z"/></g>
</svg>
