<?xml version="1.0" encoding="UTF-8"?>
<!DOCTYPE svg PUBLIC "-//W3C//DTD SVG 1.1//EN" "http://www.w3.org/Graphics/SVG/1.1/DTD/svg11.dtd">
<svg xmlns="http://www.w3.org/2000/svg" version="1.1" viewBox="0 0 512.000000 512.000000" width="32" height="32" style="shape-rendering:geometricPrecision; text-rendering:geometricPrecision; image-rendering:optimizeQuality; fill-rule:evenodd; clip-rule:evenodd" xmlns:xlink="http://www.w3.org/1999/xlink">
<g><path style="opacity:0.986" d="M 52.5,-0.5 C 187.833,-0.5 323.167,-0.5 458.5,-0.5C 487.167,6.16667 504.833,23.8333 511.5,52.5C 511.5,187.833 511.5,323.167 511.5,458.5C 504.833,487.167 487.167,504.833 458.5,511.5C 323.167,511.5 187.833,511.5 52.5,511.5C 23.8333,504.833 6.16667,487.167 -0.5,458.5C -0.5,323.167 -0.5,187.833 -0.5,52.5C 6.16667,23.8333 23.8333,6.16667 52.5,-0.5 Z M 63.5,31.5 C 191.5,31.3333 319.5,31.5 447.5,32C 466.667,33.8333 477.167,44.3333 479,63.5C 479.667,133.167 479.667,202.833 479,272.5C 447.32,239.987 415.487,207.654 383.5,175.5C 330.68,228.487 278.013,281.654 225.5,335C 224.833,335.667 224.167,335.667 223.5,335C 202.32,313.653 180.986,292.486 159.5,271.5C 116.551,309.613 74.0511,348.28 32,387.5C 31.3333,279.5 31.3333,171.5 32,63.5C 34.0109,44.3232 44.5109,33.6566 63.5,31.5 Z M 120.5,96.5 C 146.977,95.4761 159.477,108.143 158,134.5C 152.207,152.822 139.707,160.655 120.5,158C 102.178,152.207 94.3446,139.707 97,120.5C 100.349,107.985 108.182,99.9853 120.5,96.5 Z M 382.5,224.5 C 415.083,255.582 447.249,287.248 479,319.5C 479.963,364.528 479.63,409.528 478,454.5C 474.833,467 467,474.833 454.5,478C 424.864,479.609 395.197,479.943 365.5,479C 326.167,439.333 286.833,399.667 247.5,360C 292.701,314.965 337.701,269.799 382.5,224.5 Z M 158.5,319.5 C 211.965,372.465 265.299,425.632 318.5,479C 233.5,479.667 148.5,479.667 63.5,479C 47.8185,477.589 37.6519,469.423 33,454.5C 31.6471,447.208 31.3138,439.875 32,432.5C 74.3611,394.968 116.528,357.301 158.5,319.5 Z"/></g>
<g><path style="opacity:0.965" d="M 116.5,63.5 C 151.632,60.4685 175.798,75.1352 189,107.5C 196.639,138.355 187.805,163.188 162.5,182C 137.759,195.223 113.426,194.557 89.5,180C 67.6664,162.172 59.4997,139.339 65,111.5C 72.7458,85.2501 89.9124,69.2501 116.5,63.5 Z M 120.5,96.5 C 108.182,99.9853 100.349,107.985 97,120.5C 94.3446,139.707 102.178,152.207 120.5,158C 139.707,160.655 152.207,152.822 158,134.5C 159.477,108.143 146.977,95.4761 120.5,96.5 Z"/></g>
</svg>
