<?xml version="1.0" standalone="no"?>
<!DOCTYPE svg PUBLIC "-//W3C//DTD SVG 20010904//EN"
 "http://www.w3.org/TR/2001/REC-SVG-20010904/DTD/svg10.dtd">
<svg version="1.0" xmlns="http://www.w3.org/2000/svg"
 width="32.000000pt" height="32.000000pt" viewBox="0 0 512.000000 512.000000">

<g transform="translate(0.000000,512.000000) scale(0.100000,-0.100000)">
<path d="M0 4670 l0 -450 150 0 150 0 0 -1660 0 -1660 -150 0 -150 0 0 -450 0
-450 450 0 450 0 0 150 0 150 1660 0 1660 0 0 -150 0 -150 450 0 450 0 0 450
0 450 -150 0 -150 0 0 1660 0 1660 150 0 150 0 0 450 0 450 -450 0 -450 0 0
-150 0 -150 -1660 0 -1660 0 0 150 0 150 -450 0 -450 0 0 -450z m4220 -300 l0
-150 150 0 150 0 0 -1660 0 -1660 -150 0 -150 0 0 -150 0 -150 -1660 0 -1660
0 0 150 0 150 -150 0 -150 0 0 1660 0 1660 150 0 150 0 0 150 0 150 1660 0
1660 0 0 -150z"/>
<path d="M1200 3620 l0 -450 150 0 150 0 0 150 0 150 380 0 380 0 0 -1060 0
-1060 -225 0 -225 0 0 -150 0 -150 750 0 750 0 0 150 0 150 -225 0 -225 0 0
1060 0 1060 380 0 380 0 0 -150 0 -150 150 0 150 0 0 450 0 450 -1360 0 -1360
0 0 -450z"/>
</g>
</svg>
