<?xml version="1.0" standalone="no"?>
<!DOCTYPE svg PUBLIC "-//W3C//DTD SVG 20010904//EN"
 "http://www.w3.org/TR/2001/REC-SVG-20010904/DTD/svg10.dtd">
<svg version="1.0" xmlns="http://www.w3.org/2000/svg"
 width="100.000000pt" height="100.000000pt" viewBox="0 0 100.000000 100.000000"
 preserveAspectRatio="xMidYMid meet">

<g transform="translate(0.000000,100.000000) scale(0.100000,-0.100000)"
fill="#000000" stroke="none">
<path d="M24 515 c-4 -8 -4 -22 0 -30 5 -13 27 -15 143 -13 l138 3 0 25 0 25
-138 3 c-116 2 -138 0 -143 -13z"/>
<path d="M360 515 c-10 -12 -10 -18 0 -30 10 -12 39 -15 140 -15 101 0 130 3
140 15 10 12 10 18 0 30 -10 12 -39 15 -140 15 -101 0 -130 -3 -140 -15z"/>
<path d="M694 515 c-4 -8 -4 -22 0 -30 5 -13 27 -15 143 -13 l138 3 0 25 0 25
-138 3 c-116 2 -138 0 -143 -13z"/>
</g>
</svg>
