<?xml version="1.0" standalone="no"?>
<!DOCTYPE svg PUBLIC "-//W3C//DTD SVG 20010904//EN"
 "http://www.w3.org/TR/2001/REC-SVG-20010904/DTD/svg10.dtd">
<svg version="1.0" xmlns="http://www.w3.org/2000/svg"
 width="512.000000pt" height="512.000000pt" viewBox="0 0 512.000000 512.000000"
 preserveAspectRatio="xMidYMid meet">

<g transform="translate(0.000000,512.000000) scale(0.100000,-0.100000)"
fill="#000000" stroke="none">
<path d="M4565 5106 c-84 -21 -147 -57 -211 -121 -122 -122 -164 -297 -108
-460 l16 -48 -1810 -1809 -1809 -1810 -48 16 c-162 56 -338 14 -460 -109 -178
-177 -178 -453 0 -630 137 -137 340 -172 513 -87 199 97 298 337 226 547 l-16
48 1810 1809 1809 1810 48 -16 c210 -72 444 24 544 222 88 175 55 378 -84 518
-112 113 -269 158 -420 120z m175 -306 c45 -23 80 -80 80 -130 0 -76 -74 -150
-151 -150 -46 0 -108 39 -130 82 -37 72 -14 151 57 194 48 29 92 30 144 4z
m-4220 -4220 c45 -23 80 -80 80 -130 0 -76 -74 -150 -151 -150 -46 0 -108 39
-130 82 -37 72 -14 151 57 194 48 29 92 30 144 4z"/>
</g>
</svg>
