<?xml version="1.0" standalone="no"?>
<!DOCTYPE svg PUBLIC "-//W3C//DTD SVG 20010904//EN"
 "http://www.w3.org/TR/2001/REC-SVG-20010904/DTD/svg10.dtd">
<svg version="1.0" xmlns="http://www.w3.org/2000/svg"
 width="512.000000pt" height="512.000000pt" viewBox="0 0 512.000000 512.000000"
 preserveAspectRatio="xMidYMid meet">

<g transform="translate(0.000000,512.000000) scale(0.100000,-0.100000)"
fill="#000000" stroke="none">
<path d="M784 3981 c-117 -53 -117 -224 0 -280 42 -21 43 -21 1776 -21 1733 0
1734 0 1776 21 118 56 118 222 0 278 -42 21 -43 21 -1777 21 -1669 0 -1736 -1
-1775 -19z"/>
<path d="M765 3391 c-72 -32 -125 -113 -125 -191 0 -78 53 -159 125 -191 38
-18 119 -19 1795 -19 1676 0 1757 1 1795 19 72 32 125 113 125 191 0 78 -53
159 -125 191 -38 18 -119 19 -1795 19 -1676 0 -1757 -1 -1795 -19z"/>
<path d="M792 2659 c-58 -11 -137 -56 -174 -98 -141 -161 -93 -408 98 -502
l49 -24 1780 -3 c1525 -2 1786 0 1822 12 183 62 269 268 184 440 -36 74 -82
118 -161 155 l-55 26 -1750 1 c-962 1 -1769 -2 -1793 -7z"/>
<path d="M780 1699 c-106 -18 -227 -98 -286 -191 -39 -61 -64 -151 -64 -228 0
-209 152 -387 360 -420 91 -14 3451 -14 3540 1 209 33 360 209 360 419 0 210
-151 386 -360 419 -82 14 -3469 13 -3550 0z"/>
</g>
</svg>
