<?xml version="1.0" encoding="UTF-8"?>
<!DOCTYPE svg PUBLIC "-//W3C//DTD SVG 1.1//EN" "http://www.w3.org/Graphics/SVG/1.1/DTD/svg11.dtd">
<svg xmlns="http://www.w3.org/2000/svg" version="1.1" width="100px" height="100px" style="shape-rendering:geometricPrecision; text-rendering:geometricPrecision; image-rendering:optimizeQuality; fill-rule:evenodd; clip-rule:evenodd" xmlns:xlink="http://www.w3.org/1999/xlink">
<g><path style="opacity:0.8" d="M 61.5,3.5 C 63.8568,3.33669 66.1902,3.50335 68.5,4C 77.3333,12.8333 86.1667,21.6667 95,30.5C 95.6667,32.8333 95.6667,35.1667 95,37.5C 79.5291,53.9715 63.6957,70.1381 47.5,86C 43.679,88.1407 40.0124,87.974 36.5,85.5C 31.8729,87.4313 27.2062,89.2647 22.5,91C 46.1643,91.5 69.831,91.6666 93.5,91.5C 93.5,92.8333 93.5,94.1667 93.5,95.5C 64.1648,95.6666 34.8314,95.5 5.5,95C 4.13003,93.5587 3.13003,91.892 2.5,90C 6.25999,80.8901 9.92665,71.7234 13.5,62.5C 11.026,58.9876 10.8593,55.321 13,51.5C 29.0617,35.271 45.2283,19.271 61.5,3.5 Z M 63.5,8.5 C 64.552,8.35055 65.552,8.51722 66.5,9C 74.8768,17.042 82.8768,25.3754 90.5,34C 80.3759,45.1253 69.8759,55.9586 59,66.5C 49.4729,58.3063 40.6396,49.4729 32.5,40C 43.0355,29.6317 53.3688,19.1317 63.5,8.5 Z M 27.5,44.5 C 36.7456,52.2412 45.5789,60.5745 54,69.5C 54.1667,72 53,73.1667 50.5,73C 42.3333,64.8333 34.1667,56.6667 26,48.5C 25.7003,46.9343 26.2003,45.601 27.5,44.5 Z M 20.5,51.5 C 29.7456,59.2412 38.5789,67.5745 47,76.5C 46.8047,78.745 45.6381,80.5784 43.5,82C 42.5,82.6667 41.5,82.6667 40.5,82C 32.6667,74.1667 24.8333,66.3333 17,58.5C 16.3333,57.5 16.3333,56.5 17,55.5C 18.3756,54.2949 19.5423,52.9616 20.5,51.5 Z M 17.5,66.5 C 22.6313,71.1302 27.6313,75.9635 32.5,81C 25.1972,84.5481 17.6972,87.7148 10,90.5C 9.5,90.1667 9,89.8333 8.5,89.5C 11.704,81.8835 14.704,74.2169 17.5,66.5 Z"/></g>
</svg>
