<?xml version="1.0" standalone="no"?>
<!DOCTYPE svg PUBLIC "-//W3C//DTD SVG 20010904//EN"
 "http://www.w3.org/TR/2001/REC-SVG-20010904/DTD/svg10.dtd">
<svg version="1.0" xmlns="http://www.w3.org/2000/svg"
 width="512.000000pt" height="512.000000pt" viewBox="0 0 512.000000 512.000000"
 preserveAspectRatio="xMidYMid meet">

<g transform="translate(0.000000,512.000000) scale(0.100000,-0.100000)"
fill="#000000" stroke="none">
<path d="M1210 5113 c-309 -33 -592 -171 -815 -397 -199 -201 -313 -414 -372
-696 -17 -79 -18 -176 -18 -1460 0 -1284 1 -1381 18 -1460 60 -283 174 -496
372 -696 201 -203 420 -321 705 -381 79 -17 176 -18 1460 -18 1536 0 1434 -4
1652 71 197 68 346 162 504 319 202 199 321 420 381 705 17 79 18 176 18 1460
0 1525 4 1424 -66 1636 -66 203 -166 361 -329 524 -198 198 -396 307 -675 373
-89 21 -103 21 -1445 23 -745 0 -1371 -1 -1390 -3z m2800 -320 c209 -59 366
-148 501 -282 136 -137 228 -300 283 -506 21 -80 21 -82 21 -1445 0 -1363 0
-1365 -21 -1445 -55 -206 -147 -369 -283 -506 -137 -136 -300 -228 -506 -283
-80 -21 -82 -21 -1445 -21 -1363 0 -1365 0 -1445 21 -206 55 -369 147 -506
283 -134 135 -223 292 -282 501 -22 75 -22 80 -25 1395 -2 923 0 1346 8 1405
32 247 174 504 365 662 141 118 347 212 515 236 38 6 611 9 1405 8 1337 -1
1340 -1 1415 -23z"/>
</g>
</svg>
