<?xml version="1.0" standalone="no"?>
<!DOCTYPE svg PUBLIC "-//W3C//DTD SVG 20010904//EN"
 "http://www.w3.org/TR/2001/REC-SVG-20010904/DTD/svg10.dtd">
<svg version="1.0" xmlns="http://www.w3.org/2000/svg"
 width="96.000000pt" height="96.000000pt" viewBox="0 0 96.000000 96.000000"
 preserveAspectRatio="xMidYMid meet">

<g transform="translate(0.000000,96.000000) scale(0.100000,-0.100000)"
fill="#000000" stroke="none">
<path d="M803 609 l-71 -72 -35 27 c-86 65 -224 91 -337 62 -122 -31 -220
-110 -275 -219 -27 -54 -25 -58 25 -70 22 -5 28 -1 49 39 34 63 96 123 161
153 74 35 201 37 270 5 95 -46 95 -42 5 -133 l-80 -81 183 0 182 0 0 180 c0
99 -1 180 -3 180 -1 0 -34 -32 -74 -71z"/>
</g>
</svg>
